<?xml version="1.0" standalone="no"?>
<!DOCTYPE svg PUBLIC "-//W3C//DTD SVG 20010904//EN"
 "http://www.w3.org/TR/2001/REC-SVG-20010904/DTD/svg10.dtd">
<svg version="1.0" xmlns="http://www.w3.org/2000/svg"
 width="703.000000pt" height="703.000000pt" viewBox="0 0 703.000000 703.000000"
 preserveAspectRatio="xMidYMid meet">
<metadata>
Created by potrace 1.14, written by Peter Selinger 2001-2017
</metadata>
<g transform="translate(0.000000,703.000000) scale(0.100000,-0.100000)"
fill="#000000" stroke="none">
<path d="M0 3515 l0 -3515 3515 0 3515 0 0 3515 0 3515 -3515 0 -3515 0 0
-3515z m4640 1159 c94 -23 218 -87 283 -145 31 -28 57 -55 57 -60 0 -14 -148
-211 -171 -227 -39 -27 -90 -18 -162 28 -97 61 -154 80 -240 80 -132 0 -212
-60 -238 -178 -9 -46 -8 -61 6 -98 24 -63 83 -104 238 -165 277 -107 356 -163
420 -292 69 -141 50 -381 -44 -558 -195 -368 -706 -475 -1099 -231 -30 19 -76
54 -102 80 l-47 45 84 110 c133 174 162 183 293 88 117 -84 168 -104 272 -105
70 0 94 4 133 23 86 42 135 142 125 253 -9 93 -72 146 -249 208 -291 102 -377
170 -430 341 -24 77 -25 227 -3 318 51 205 203 376 406 458 130 53 321 64 468
27z m-1195 -26 c-3 -18 -12 -87 -20 -153 -9 -66 -18 -130 -20 -142 l-5 -23
-248 0 -248 0 -21 -172 c-12 -95 -57 -458 -100 -805 l-78 -633 -219 0 -219 0
7 53 c4 28 12 88 17 132 5 44 25 208 44 365 36 292 71 583 106 865 10 88 19
168 19 178 0 16 -19 17 -251 17 -234 0 -250 1 -245 18 3 9 12 82 21 162 9 80
18 151 20 158 4 9 157 12 725 12 l721 0 -6 -32z"/>
</g>
</svg>
